<?xml version="1.0" encoding="utf-8" ?>
<svg baseProfile="full" height="600px" version="1.1" width="1000px" xmlns="http://www.w3.org/2000/svg" xmlns:ev="http://www.w3.org/2001/xml-events" xmlns:xlink="http://www.w3.org/1999/xlink"><defs /><g id="shapes"><rect fill="#fcfcfc" height="300px" stroke="#000000" stroke-width="1" width="700px" x="120px" y="10px" /></g><g id="trace" /><g fill="grey" id="scale_lines" stroke="grey"><line stroke-width="1" x1="120.0" x2="820.0" y1="310.0" y2="310.0" /><line stroke-width="0.25" x1="120.0" x2="820.0" y1="301.42857142857144" y2="301.42857142857144" /><line stroke-width="0.25" x1="120.0" x2="820.0" y1="292.85714285714283" y2="292.85714285714283" /><line stroke-width="0.25" x1="120.0" x2="820.0" y1="284.2857142857143" y2="284.2857142857143" /><line stroke-width="0.25" x1="120.0" x2="820.0" y1="275.7142857142857" y2="275.7142857142857" /><line stroke-width="0.5" x1="120.0" x2="820.0" y1="267.14285714285717" y2="267.14285714285717" /><line stroke-width="0.25" x1="120.0" x2="820.0" y1="258.57142857142856" y2="258.57142857142856" /><line stroke-width="0.25" x1="120.0" x2="820.0" y1="250.0" y2="250.0" /><line stroke-width="0.25" x1="120.0" x2="820.0" y1="241.42857142857144" y2="241.42857142857144" /><line stroke-width="0.25" x1="120.0" x2="820.0" y1="232.85714285714286" y2="232.85714285714286" /><line stroke-width="1" x1="120.0" x2="820.0" y1="224.28571428571428" y2="224.28571428571428" /><line stroke-width="0.25" x1="120.0" x2="820.0" y1="215.71428571428572" y2="215.71428571428572" /><line stroke-width="0.25" x1="120.0" x2="820.0" y1="207.14285714285714" y2="207.14285714285714" /><line stroke-width="0.25" x1="120.0" x2="820.0" y1="198.57142857142856" y2="198.57142857142856" /><line stroke-width="0.25" x1="120.0" x2="820.0" y1="190.0" y2="190.0" /><line stroke-width="0.5" x1="120.0" x2="820.0" y1="181.42857142857144" y2="181.42857142857144" /><line stroke-width="0.25" x1="120.0" x2="820.0" y1="172.85714285714286" y2="172.85714285714286" /><line stroke-width="0.25" x1="120.0" x2="820.0" y1="164.28571428571428" y2="164.28571428571428" /><line stroke-width="0.25" x1="120.0" x2="820.0" y1="155.71428571428572" y2="155.71428571428572" /><line stroke-width="0.25" x1="120.0" x2="820.0" y1="147.14285714285717" y2="147.14285714285717" /><line stroke-width="1" x1="120.0" x2="820.0" y1="138.57142857142858" y2="138.57142857142858" /><line stroke-width="0.25" x1="120.0" x2="820.0" y1="130.0" y2="130.0" /><line stroke-width="0.25" x1="120.0" x2="820.0" y1="121.42857142857144" y2="121.42857142857144" /><line stroke-width="0.25" x1="120.0" x2="820.0" y1="112.85714285714286" y2="112.85714285714286" /><line stroke-width="0.25" x1="120.0" x2="820.0" y1="104.28571428571428" y2="104.28571428571428" /><line stroke-width="0.5" x1="120.0" x2="820.0" y1="95.71428571428572" y2="95.71428571428572" /><line stroke-width="0.25" x1="120.0" x2="820.0" y1="87.14285714285714" y2="87.14285714285714" /><line stroke-width="0.25" x1="120.0" x2="820.0" y1="78.57142857142856" y2="78.57142857142856" /><line stroke-width="0.25" x1="120.0" x2="820.0" y1="70.0" y2="70.0" /><line stroke-width="0.25" x1="120.0" x2="820.0" y1="61.428571428571416" y2="61.428571428571416" /><line stroke-width="1" x1="120.0" x2="820.0" y1="52.85714285714289" y2="52.85714285714289" /><line stroke-width="0.25" x1="120.0" x2="820.0" y1="44.28571428571428" y2="44.28571428571428" /><line stroke-width="0.25" x1="120.0" x2="820.0" y1="35.71428571428572" y2="35.71428571428572" /><line stroke-width="0.25" x1="120.0" x2="820.0" y1="27.142857142857167" y2="27.142857142857167" /><line stroke-width="0.25" x1="120.0" x2="820.0" y1="18.571428571428555" y2="18.571428571428555" /><line stroke-width="0.25" x1="120.0" x2="120.0" y1="10.0" y2="310.0" /><line stroke-width="0.25" x1="161.0879604463256" x2="161.0879604463256" y1="10.0" y2="310.0" /><line stroke-width="0.25" x1="190.2403323215956" x2="190.2403323215956" y1="10.0" y2="310.0" /><line stroke-width="0.25" x1="212.85266869014208" x2="212.85266869014208" y1="10.0" y2="310.0" /><line stroke-width="0.25" x1="231.32829276792123" x2="231.32829276792123" y1="10.0" y2="310.0" /><line stroke-width="0.25" x1="246.94921034839766" x2="246.94921034839766" y1="10.0" y2="310.0" /><line stroke-width="0.25" x1="260.4806646431912" x2="260.4806646431912" y1="10.0" y2="310.0" /><line stroke-width="0.25" x1="272.41625321424686" x2="272.41625321424686" y1="10.0" y2="310.0" /><line stroke-width="1" x1="283.09300101173767" x2="283.09300101173767" y1="10.0" y2="310.0" /><line stroke-width="0.25" x1="353.3333333333333" x2="353.3333333333333" y1="10.0" y2="310.0" /><line stroke-width="0.25" x1="394.421293779659" x2="394.421293779659" y1="10.0" y2="310.0" /><line stroke-width="0.25" x1="423.57366565492896" x2="423.57366565492896" y1="10.0" y2="310.0" /><line stroke-width="0.25" x1="446.1860020234754" x2="446.1860020234754" y1="10.0" y2="310.0" /><line stroke-width="0.25" x1="464.6616261012545" x2="464.6616261012545" y1="10.0" y2="310.0" /><line stroke-width="0.25" x1="480.282543681731" x2="480.282543681731" y1="10.0" y2="310.0" /><line stroke-width="0.25" x1="493.81399797652455" x2="493.81399797652455" y1="10.0" y2="310.0" /><line stroke-width="0.25" x1="505.7495865475801" x2="505.7495865475801" y1="10.0" y2="310.0" /><line stroke-width="1" x1="516.426334345071" x2="516.426334345071" y1="10.0" y2="310.0" /><line stroke-width="0.25" x1="586.6666666666666" x2="586.6666666666666" y1="10.0" y2="310.0" /><line stroke-width="0.25" x1="627.7546271129924" x2="627.7546271129924" y1="10.0" y2="310.0" /><line stroke-width="0.25" x1="656.9069989882623" x2="656.9069989882623" y1="10.0" y2="310.0" /><line stroke-width="0.25" x1="679.5193353568087" x2="679.5193353568087" y1="10.0" y2="310.0" /><line stroke-width="0.25" x1="697.9949594345878" x2="697.9949594345878" y1="10.0" y2="310.0" /><line stroke-width="0.25" x1="713.6158770150643" x2="713.6158770150643" y1="10.0" y2="310.0" /><line stroke-width="0.25" x1="727.1473313098579" x2="727.1473313098579" y1="10.0" y2="310.0" /><line stroke-width="0.25" x1="739.0829198809134" x2="739.0829198809134" y1="10.0" y2="310.0" /><line stroke-width="1" x1="749.7596676784044" x2="749.7596676784044" y1="10.0" y2="310.0" /></g><g fill="black" id="labels"><text fill="black" font-family="sans-serif" font-size="12" transform="rotate(45,212.85266869014208,320.0)" x="212.85266869014208" y="320.0">50</text><text fill="black" font-family="sans-serif" font-size="12" transform="rotate(45,283.09300101173767,320.0)" x="283.09300101173767" y="320.0">100</text><text fill="black" font-family="sans-serif" font-size="12" transform="rotate(45,446.1860020234754,320.0)" x="446.1860020234754" y="320.0">500</text><text fill="black" font-family="sans-serif" font-size="12" transform="rotate(45,516.426334345071,320.0)" x="516.426334345071" y="320.0">1000</text><text fill="black" font-family="sans-serif" font-size="12" transform="rotate(45,679.5193353568087,320.0)" x="679.5193353568087" y="320.0">5000</text><text fill="black" font-family="sans-serif" font-size="12" transform="rotate(45,749.7596676784044,320.0)" x="749.7596676784044" y="320.0">10000</text><text fill="black" font-family="sans-serif" font-size="12" transform="rotate(0,850,320)" x="850" y="320">Frequency in Hz</text><text fill="black" font-family="sans-serif" font-size="12" transform="rotate(0,100.0,314.0)" x="100.0" y="314.0">60</text><text fill="black" font-family="sans-serif" font-size="12" transform="rotate(0,100.0,271.14285714285717)" x="100.0" y="271.14285714285717">65</text><text fill="black" font-family="sans-serif" font-size="12" transform="rotate(0,100.0,228.28571428571428)" x="100.0" y="228.28571428571428">70</text><text fill="black" font-family="sans-serif" font-size="12" transform="rotate(0,100.0,185.42857142857144)" x="100.0" y="185.42857142857144">75</text><text fill="black" font-family="sans-serif" font-size="12" transform="rotate(0,100.0,142.57142857142858)" x="100.0" y="142.57142857142858">80</text><text fill="black" font-family="sans-serif" font-size="12" transform="rotate(0,100.0,99.71428571428572)" x="100.0" y="99.71428571428572">85</text><text fill="black" font-family="sans-serif" font-size="12" transform="rotate(0,100.0,56.85714285714289)" x="100.0" y="56.85714285714289">90</text><text fill="black" font-family="sans-serif" font-size="12" transform="rotate(0,30,15)" x="30" y="15">Amplitude in dB</text></g><mask id="curveMask"><rect fill="white" height="300" width="700" x="120" y="10" /></mask><g fill="white" fill-opacity="0" id="path" mask="url(#curveMask)" stroke-width="2"><path d="M 55.616559 659.894286 C 57.568074,654.950548 59.519589,650.006810 61.469816,643.411429 M 61.469816 643.411429 C 63.420043,636.816047 65.368981,628.569022 67.319144,619.480000 M 67.319144 619.480000 C 69.269308,610.390978 71.220697,600.459959 73.171419,589.754286 M 73.171419 589.754286 C 75.122141,579.048613 77.072196,567.568286 79.023447,555.511429 M 79.023447 555.511429 C 80.974699,543.454571 82.927147,530.821182 84.878862,518.011429 M 84.878862 518.011429 C 86.830577,505.201675 88.781559,492.215557 90.732716,479.645714 M 90.732716 479.645714 C 92.683873,467.075872 94.635205,454.922306 96.586489,443.611429 M 96.586489 443.611429 C 98.537773,432.300551 100.489009,421.832363 102.440349,412.342857 M 102.440349 412.342857 C 104.391689,402.853352 106.343134,394.342529 108.293424,386.748571 M 108.293424 386.748571 C 110.243713,379.154614 112.192848,372.477521 114.144029,366.631429 M 114.144029 366.631429 C 116.095210,360.785336 118.048437,355.770245 120.000000,351.434286 M 120.000000 351.434286 C 121.951563,347.098326 123.901462,343.441498 125.852109,340.111429 M 125.852109 340.111429 C 127.802755,336.781359 129.754150,333.778047 131.705634,330.631429 M 131.705634 330.631429 C 133.657119,327.484810 135.608694,324.194885 137.559477,320.440000 M 137.559477 320.440000 C 139.510260,316.685115 141.460251,312.465270 143.411751,307.865714 M 143.411751 307.865714 C 145.363251,303.266159 147.316261,298.286893 149.267575,293.302857 M 149.267575 293.302857 C 151.218890,288.318821 153.168510,283.330014 155.119194,278.697143 M 155.119194 278.697143 C 157.069879,274.064272 159.021629,269.787336 160.973049,266.020000 M 160.973049 266.020000 C 162.924468,262.252664 164.875557,258.994926 166.826821,256.094286 M 166.826821 256.094286 C 168.778086,253.193645 170.729526,250.650102 172.680681,248.182857 M 172.680681 248.182857 C 174.631837,245.715612 176.582707,243.324666 178.533756,241.000000 M 178.533756 241.000000 C 180.484805,238.675334 182.436031,236.416947 184.387045,234.468571 M 184.387045 234.468571 C 186.338059,232.520196 188.288859,230.881832 190.240332,229.702857 M 190.240332 229.702857 C 192.191806,228.523882 194.143951,227.804295 196.094832,227.337143 M 196.094832 227.337143 C 198.045713,226.869990 199.995328,226.655272 201.945967,226.360000 M 201.945967 226.360000 C 203.896605,226.064728 205.848267,225.688902 207.799809,225.142857 M 207.799809 225.142857 C 209.751351,224.596812 211.702772,223.880548 213.654094,223.300000 M 213.654094 223.300000 C 215.605416,222.719452 217.556639,222.274618 219.507908,222.502857 M 219.507908 222.502857 C 221.459177,222.731096 223.410493,223.632407 225.361318,225.562857 M 225.361318 225.562857 C 227.312144,227.493308 229.262479,230.452898 231.213381,234.202857 M 231.213381 234.202857 C 233.164283,237.952816 235.115752,242.493144 237.067153,246.794286 M 237.067153 246.794286 C 239.018555,251.095428 240.969888,255.157385 242.921014,257.671429 M 242.921014 257.671429 C 244.872139,260.185473 246.823057,261.151604 248.774088,260.071429 M 248.774088 260.071429 C 250.725120,258.991253 252.676264,255.864771 254.627377,251.260000 M 254.627377 251.260000 C 256.578491,246.655229 258.529573,240.572171 260.480665,233.945714 M 260.480665 233.945714 C 262.431757,227.319258 264.382859,220.149403 266.333969,213.168571 M 266.333969 213.168571 C 268.285079,206.187739 270.236196,199.395930 272.187427,193.188571 M 272.187427 193.188571 C 274.138659,186.981213 276.090006,181.358306 278.041207,176.397143 M 278.041207 176.397143 C 279.992407,171.435980 281.943461,167.136560 283.894426,163.402857 M 283.894426 163.402857 C 285.845392,159.669154 287.796270,156.501168 289.747291,153.768571 M 289.747291 153.768571 C 291.698312,151.035974 293.649476,148.738766 295.600755,146.834286 M 295.600755 146.834286 C 297.552033,144.929805 299.503427,143.418052 301.454559,142.300000 M 301.454559 142.300000 C 303.405690,141.181948 305.356560,140.457598 307.307486,140.097143 M 307.307486 140.097143 C 309.258412,139.736688 311.209394,139.740128 313.160593,140.028571 M 313.160593 140.028571 C 315.111792,140.317015 317.063208,140.890462 319.014421,141.537143 M 319.014421 141.537143 C 320.965634,142.183824 322.916643,142.903740 324.867710,143.260000 M 324.867710 143.260000 C 326.818776,143.616260 328.769899,143.608865 330.720997,142.900000 M 330.720997 142.900000 C 332.672094,142.191135 334.623166,140.780799 336.574301,138.760000 M 336.574301 138.760000 C 338.525436,136.739201 340.476634,134.107938 342.427760,131.388571 M 342.427760 131.388571 C 344.378886,128.669205 346.329939,125.861734 348.281006,123.537143 M 348.281006 123.537143 C 350.232074,121.212552 352.183155,119.370841 354.134256,118.334286 M 354.134256 118.334286 C 356.085357,117.297730 358.036478,117.066329 359.987623,117.700000 M 359.987623 117.700000 C 361.938769,118.333671 363.889940,119.832412 365.841087,121.994286 M 365.841087 121.994286 C 367.792234,124.156159 369.743357,126.981164 371.694468,129.974286 M 371.694468 129.974286 C 373.645580,132.967407 375.596680,136.128644 377.547818,138.880000 M 377.547818 138.880000 C 379.498956,141.631356 381.450132,143.972829 383.401302,145.677143 M 383.401302 145.677143 C 385.352471,147.381456 387.303633,148.448610 389.254753,149.011429 M 389.254753 149.011429 C 391.205873,149.574247 393.156950,149.632731 395.108042,149.422857 M 395.108042 149.422857 C 397.059134,149.212983 399.010239,148.734752 400.961329,148.171429 M 400.961329 148.171429 C 402.912419,147.608105 404.863493,146.959691 406.814633,146.337143 M 406.814633 146.337143 C 408.765774,145.714595 410.716980,145.117914 412.668092,144.605714 M 412.668092 144.605714 C 414.619204,144.093515 416.570221,143.665797 418.521339,143.397143 M 418.521339 143.397143 C 420.472456,143.128489 422.423675,143.018898 424.374840,143.020000 M 424.374840 143.020000 C 426.326004,143.021102 428.277115,143.132895 430.228193,143.122857 M 430.228193 143.122857 C 432.179271,143.112819 434.130317,142.980950 436.081419,142.608571 M 436.081419 142.608571 C 438.032522,142.236193 439.983680,141.623304 441.934801,140.945714 M 441.934801 140.945714 C 443.885921,140.268124 445.837003,139.525833 447.788150,138.897143 M 447.788150 138.897143 C 449.739298,138.268453 451.690511,137.753364 453.641634,137.311429 M 453.641634 137.311429 C 455.592756,136.869493 457.543788,136.500711 459.494908,136.034286 M 459.494908 136.034286 C 461.446028,135.567861 463.397236,135.003794 465.348374,134.225714 M 465.348374 134.225714 C 467.299513,133.447635 469.250581,132.455543 471.201662,131.268571 M 471.201662 131.268571 C 473.152742,130.081600 475.103833,128.699748 477.054966,127.325714 M 477.054966 127.325714 C 479.006098,125.951680 480.957272,124.585463 482.908424,123.434286 M 482.908424 123.434286 C 484.859577,122.283108 486.810709,121.346971 488.761804,120.605714 M 488.761804 120.605714 C 490.712899,119.864458 492.663956,119.318083 494.615046,118.762857 M 494.615046 118.762857 C 496.566137,118.207631 498.517260,117.643554 500.468407,117.031429 M 500.468407 117.031429 C 502.419553,116.419303 504.370722,115.759130 506.321864,115.248571 M 506.321864 115.248571 C 508.273005,114.738013 510.224120,114.377068 512.175239,114.271429 M 512.175239 114.271429 C 514.126357,114.165789 516.077480,114.315453 518.028582,114.580000 M 518.028582 114.580000 C 519.979685,114.844547 521.930766,115.223975 523.881872,115.634286 M 523.881872 115.634286 C 525.832978,116.044596 527.784110,116.485789 529.735240,116.954286 M 529.735240 116.954286 C 531.686370,117.422782 533.637499,117.918582 535.588623,118.411429 M 535.588623 118.411429 C 537.539747,118.904275 539.490866,119.394167 541.441994,119.868571 M 541.441994 119.868571 C 543.393122,120.342976 545.344260,120.801892 547.295373,121.214286 M 547.295373 121.214286 C 549.246485,121.626680 551.197573,121.992552 553.148686,122.260000 M 553.148686 122.260000 C 555.099800,122.527448 557.050940,122.696470 559.002070,122.705714 M 559.002070 122.705714 C 560.953200,122.714958 562.904321,122.564424 564.855442,122.200000 M 564.855442 122.200000 C 566.806563,121.835576 568.757684,121.257262 570.708798,120.511429 M 570.708798 120.511429 C 572.659912,119.765595 574.611019,118.852241 576.562140,117.914286 M 576.562140 117.914286 C 578.513261,116.976330 580.464397,116.013774 582.415518,115.188571 M 582.415518 115.188571 C 584.366639,114.363369 586.317744,113.675522 588.268865,113.182857 M 588.268865 113.182857 C 590.219986,112.690192 592.171122,112.392710 594.122252,112.222857 M 594.122252 112.222857 C 596.073381,112.053004 598.024502,112.010780 599.975617,111.974286 M 599.975617 111.974286 C 601.926731,111.937791 603.877838,111.907026 605.828955,111.802857 M 605.828955 111.802857 C 607.780072,111.698688 609.731198,111.521116 611.682326,111.262857 M 611.682326 111.262857 C 613.633454,111.004598 615.584584,110.665652 617.535705,110.337143 M 617.535705 110.337143 C 619.486827,110.008633 621.437940,109.690560 623.389054,109.480000 M 623.389054 109.480000 C 625.340167,109.269440 627.291281,109.166395 629.242402,109.171429 M 629.242402 109.171429 C 631.193523,109.176462 633.144652,109.289576 635.095774,109.445714 M 635.095774 109.445714 C 637.046895,109.601853 638.998009,109.801016 640.949131,110.002857 M 640.949131 110.002857 C 642.900252,110.204698 644.851380,110.409217 646.802500,110.645714 M 646.802500 110.645714 C 648.753620,110.882212 650.704731,111.150688 652.655850,111.442857 M 652.655850 111.442857 C 654.606970,111.735026 656.558097,112.050887 658.509222,112.274286 M 658.509222 112.274286 C 660.460347,112.497684 662.411469,112.628620 664.362584,112.462857 M 664.362584 112.462857 C 666.313698,112.297094 668.264805,111.834633 670.215927,110.937143 M 670.215927 110.937143 C 672.167048,110.039653 674.118185,108.707135 676.069308,107.002857 M 676.069308 107.002857 C 678.020432,105.298579 679.971543,103.222542 681.922659,101.062857 M 681.922659 101.062857 C 683.873774,98.903173 685.824895,96.659841 687.776019,94.625714 M 687.776019 94.625714 C 689.727142,92.591588 691.678268,90.766667 693.629386,89.328571 M 693.629386 89.328571 C 695.580504,87.890476 697.531615,86.839207 699.482735,86.217143 M 699.482735 86.217143 C 701.433854,85.595078 703.384983,85.402219 705.336106,85.608571 M 705.336106 85.608571 C 707.287229,85.814924 709.238346,86.420490 711.189463,87.194286 M 711.189463 87.194286 C 713.140580,87.968081 715.091698,88.910107 717.042819,89.637143 M 717.042819 89.637143 C 718.993939,90.364178 720.945062,90.876223 722.896183,90.897143 M 722.896183 90.897143 C 724.847303,90.918063 726.798422,90.447857 728.749542,89.542857 M 728.749542 89.542857 C 730.700662,88.637857 732.651782,87.298063 734.602904,85.857143 M 734.602904 85.857143 C 736.554026,84.416222 738.505149,82.874175 740.456270,81.597143 M 740.456270 81.597143 C 742.407391,80.320110 744.358510,79.308092 746.309630,78.802857 M 746.309630 78.802857 C 748.260750,78.297622 750.211871,78.299171 752.162991,78.914286 M 752.162991 78.914286 C 754.114111,79.529400 756.065229,80.758080 758.016351,82.531429 M 758.016351 82.531429 C 759.967474,84.304778 761.918600,86.622796 763.869718,89.337143 M 763.869718 89.337143 C 765.820837,92.051490 767.771947,95.162165 769.723067,98.577143 M 769.723067 98.577143 C 771.674187,101.992121 773.625316,105.711400 775.576439,109.720000 M 775.576439 109.720000 C 777.527561,113.728600 779.478676,118.026519 781.429795,122.765714 M 781.429795 122.765714 C 783.380914,127.504910 785.332037,132.685381 787.283158,138.777143 M 787.283158 138.777143 C 789.234278,144.868905 791.185397,151.871959 793.136515,160.651429 M 793.136515 160.651429 C 795.087633,169.430898 797.038752,179.986784 798.989874,193.385714 M 798.989874 193.385714 C 800.940997,206.784645 802.892123,223.026619 804.843243,242.868571 M 804.843243 242.868571 C 806.794362,262.710523 808.745476,286.152453 810.696597,312.442857 M 810.696597 312.442857 C 812.647718,338.733262 814.598846,367.872142 816.549968,398.088571 M 816.549968 398.088571 C 818.501089,428.305001 820.452204,459.598980 822.403323,484.702857 M 822.403323 484.702857 C 824.354442,509.806734 826.305565,528.720510 828.256688,547.634286 " stroke="#d88c8c" /><path d="M 55.616559 702.751429 C 57.568074,697.807691 59.519589,692.863953 61.469816,686.268571 M 61.469816 686.268571 C 63.420043,679.673190 65.368981,671.426165 67.319144,662.337143 M 67.319144 662.337143 C 69.269308,653.248121 71.220697,643.317101 73.171419,632.611429 M 73.171419 632.611429 C 75.122141,621.905756 77.072196,610.425429 79.023447,598.368571 M 79.023447 598.368571 C 80.974699,586.311714 82.927147,573.678325 84.878862,560.868571 M 84.878862 560.868571 C 86.830577,548.058818 88.781559,535.072699 90.732716,522.502857 M 90.732716 522.502857 C 92.683873,509.933015 94.635205,497.779449 96.586489,486.468571 M 96.586489 486.468571 C 98.537773,475.157694 100.489009,464.689506 102.440349,455.200000 M 102.440349 455.200000 C 104.391689,445.710494 106.343134,437.199672 108.293424,429.605714 M 108.293424 429.605714 C 110.243713,422.011757 112.192848,415.334664 114.144029,409.488571 M 114.144029 409.488571 C 116.095210,403.642479 118.048437,398.627388 120.000000,394.291429 M 120.000000 394.291429 C 121.951563,389.955469 123.901462,386.298641 125.852109,382.968571 M 125.852109 382.968571 C 127.802755,379.638502 129.754150,376.635190 131.705634,373.488571 M 131.705634 373.488571 C 133.657119,370.341953 135.608694,367.052028 137.559477,363.297143 M 137.559477 363.297143 C 139.510260,359.542258 141.460251,355.322413 143.411751,350.722857 M 143.411751 350.722857 C 145.363251,346.123302 147.316261,341.144036 149.267575,336.160000 M 149.267575 336.160000 C 151.218890,331.175964 153.168510,326.187157 155.119194,321.554286 M 155.119194 321.554286 C 157.069879,316.921415 159.021629,312.644479 160.973049,308.877143 M 160.973049 308.877143 C 162.924468,305.109806 164.875557,301.852069 166.826821,298.951429 M 166.826821 298.951429 C 168.778086,296.050788 170.729526,293.507245 172.680681,291.040000 M 172.680681 291.040000 C 174.631837,288.572755 176.582707,286.181809 178.533756,283.857143 M 178.533756 283.857143 C 180.484805,281.532476 182.436031,279.274090 184.387045,277.325714 M 184.387045 277.325714 C 186.338059,275.377339 188.288859,273.738975 190.240332,272.560000 M 190.240332 272.560000 C 192.191806,271.381025 194.143951,270.661438 196.094832,270.194286 M 196.094832 270.194286 C 198.045713,269.727133 199.995328,269.512415 201.945967,269.217143 M 201.945967 269.217143 C 203.896605,268.921871 205.848267,268.546045 207.799809,268.000000 M 207.799809 268.000000 C 209.751351,267.453955 211.702772,266.737691 213.654094,266.157143 M 213.654094 266.157143 C 215.605416,265.576594 217.556639,265.131761 219.507908,265.360000 M 219.507908 265.360000 C 221.459177,265.588239 223.410493,266.489549 225.361318,268.420000 M 225.361318 268.420000 C 227.312144,270.350451 229.262479,273.310041 231.213381,277.060000 M 231.213381 277.060000 C 233.164283,280.809959 235.115752,285.350286 237.067153,289.651429 M 237.067153 289.651429 C 239.018555,293.952571 240.969888,298.014527 242.921014,300.528571 M 242.921014 300.528571 C 244.872139,303.042615 246.823057,304.008747 248.774088,302.928571 M 248.774088 302.928571 C 250.725120,301.848396 252.676264,298.721913 254.627377,294.117143 M 254.627377 294.117143 C 256.578491,289.512372 258.529573,283.429314 260.480665,276.802857 M 260.480665 276.802857 C 262.431757,270.176401 264.382859,263.006546 266.333969,256.025714 M 266.333969 256.025714 C 268.285079,249.044882 270.236196,242.253073 272.187427,236.045714 M 272.187427 236.045714 C 274.138659,229.838356 276.090006,224.215449 278.041207,219.254286 M 278.041207 219.254286 C 279.992407,214.293122 281.943461,209.993703 283.894426,206.260000 M 283.894426 206.260000 C 285.845392,202.526297 287.796270,199.358311 289.747291,196.625714 M 289.747291 196.625714 C 291.698312,193.893117 293.649476,191.595909 295.600755,189.691429 M 295.600755 189.691429 C 297.552033,187.786948 299.503427,186.275195 301.454559,185.157143 M 301.454559 185.157143 C 303.405690,184.039091 305.356560,183.314741 307.307486,182.954286 M 307.307486 182.954286 C 309.258412,182.593831 311.209394,182.597271 313.160593,182.885714 M 313.160593 182.885714 C 315.111792,183.174158 317.063208,183.747605 319.014421,184.394286 M 319.014421 184.394286 C 320.965634,185.040967 322.916643,185.760883 324.867710,186.117143 M 324.867710 186.117143 C 326.818776,186.473403 328.769899,186.466008 330.720997,185.757143 M 330.720997 185.757143 C 332.672094,185.048278 334.623166,183.637942 336.574301,181.617143 M 336.574301 181.617143 C 338.525436,179.596344 340.476634,176.965081 342.427760,174.245714 M 342.427760 174.245714 C 344.378886,171.526347 346.329939,168.718877 348.281006,166.394286 M 348.281006 166.394286 C 350.232074,164.069695 352.183155,162.227984 354.134256,161.191429 M 354.134256 161.191429 C 356.085357,160.154873 358.036478,159.923472 359.987623,160.557143 M 359.987623 160.557143 C 361.938769,161.190813 363.889940,162.689555 365.841087,164.851429 M 365.841087 164.851429 C 367.792234,167.013302 369.743357,169.838307 371.694468,172.831429 M 371.694468 172.831429 C 373.645580,175.824550 375.596680,178.985787 377.547818,181.737143 M 377.547818 181.737143 C 379.498956,184.488498 381.450132,186.829972 383.401302,188.534286 M 383.401302 188.534286 C 385.352471,190.238599 387.303633,191.305753 389.254753,191.868571 M 389.254753 191.868571 C 391.205873,192.431390 393.156950,192.489874 395.108042,192.280000 M 395.108042 192.280000 C 397.059134,192.070126 399.010239,191.591895 400.961329,191.028571 M 400.961329 191.028571 C 402.912419,190.465248 404.863493,189.816834 406.814633,189.194286 M 406.814633 189.194286 C 408.765774,188.571738 410.716980,187.975057 412.668092,187.462857 M 412.668092 187.462857 C 414.619204,186.950658 416.570221,186.522940 418.521339,186.254286 M 418.521339 186.254286 C 420.472456,185.985632 422.423675,185.876041 424.374840,185.877143 M 424.374840 185.877143 C 426.326004,185.878244 428.277115,185.990038 430.228193,185.980000 M 430.228193 185.980000 C 432.179271,185.969962 434.130317,185.838093 436.081419,185.465714 M 436.081419 185.465714 C 438.032522,185.093336 439.983680,184.480447 441.934801,183.802857 M 441.934801 183.802857 C 443.885921,183.125267 445.837003,182.382976 447.788150,181.754286 M 447.788150 181.754286 C 449.739298,181.125596 451.690511,180.610507 453.641634,180.168571 M 453.641634 180.168571 C 455.592756,179.726636 457.543788,179.357853 459.494908,178.891429 M 459.494908 178.891429 C 461.446028,178.425004 463.397236,177.860937 465.348374,177.082857 M 465.348374 177.082857 C 467.299513,176.304778 469.250581,175.312686 471.201662,174.125714 M 471.201662 174.125714 C 473.152742,172.938743 475.103833,171.556891 477.054966,170.182857 M 477.054966 170.182857 C 479.006098,168.808823 480.957272,167.442606 482.908424,166.291429 M 482.908424 166.291429 C 484.859577,165.140251 486.810709,164.204113 488.761804,163.462857 M 488.761804 163.462857 C 490.712899,162.721601 492.663956,162.175226 494.615046,161.620000 M 494.615046 161.620000 C 496.566137,161.064774 498.517260,160.500697 500.468407,159.888571 M 500.468407 159.888571 C 502.419553,159.276446 504.370722,158.616273 506.321864,158.105714 M 506.321864 158.105714 C 508.273005,157.595156 510.224120,157.234211 512.175239,157.128571 M 512.175239 157.128571 C 514.126357,157.022932 516.077480,157.172596 518.028582,157.437143 M 518.028582 157.437143 C 519.979685,157.701689 521.930766,158.081118 523.881872,158.491429 M 523.881872 158.491429 C 525.832978,158.901739 527.784110,159.342932 529.735240,159.811429 M 529.735240 159.811429 C 531.686370,160.279925 533.637499,160.775725 535.588623,161.268571 M 535.588623 161.268571 C 537.539747,161.761418 539.490866,162.251310 541.441994,162.725714 M 541.441994 162.725714 C 543.393122,163.200118 545.344260,163.659034 547.295373,164.071429 M 547.295373 164.071429 C 549.246485,164.483823 551.197573,164.849695 553.148686,165.117143 M 553.148686 165.117143 C 555.099800,165.384590 557.050940,165.553613 559.002070,165.562857 M 559.002070 165.562857 C 560.953200,165.572101 562.904321,165.421567 564.855442,165.057143 M 564.855442 165.057143 C 566.806563,164.692719 568.757684,164.114405 570.708798,163.368571 M 570.708798 163.368571 C 572.659912,162.622738 574.611019,161.709384 576.562140,160.771429 M 576.562140 160.771429 C 578.513261,159.833473 580.464397,158.870916 582.415518,158.045714 M 582.415518 158.045714 C 584.366639,157.220512 586.317744,156.532665 588.268865,156.040000 M 588.268865 156.040000 C 590.219986,155.547335 592.171122,155.249853 594.122252,155.080000 M 594.122252 155.080000 C 596.073381,154.910147 598.024502,154.867923 599.975617,154.831429 M 599.975617 154.831429 C 601.926731,154.794934 603.877838,154.764169 605.828955,154.660000 M 605.828955 154.660000 C 607.780072,154.555831 609.731198,154.378259 611.682326,154.120000 M 611.682326 154.120000 C 613.633454,153.861741 615.584584,153.522795 617.535705,153.194286 M 617.535705 153.194286 C 619.486827,152.865776 621.437940,152.547702 623.389054,152.337143 M 623.389054 152.337143 C 625.340167,152.126583 627.291281,152.023538 629.242402,152.028571 M 629.242402 152.028571 C 631.193523,152.033605 633.144652,152.146719 635.095774,152.302857 M 635.095774 152.302857 C 637.046895,152.458996 638.998009,152.658159 640.949131,152.860000 M 640.949131 152.860000 C 642.900252,153.061841 644.851380,153.266360 646.802500,153.502857 M 646.802500 153.502857 C 648.753620,153.739355 650.704731,154.007831 652.655850,154.300000 M 652.655850 154.300000 C 654.606970,154.592169 656.558097,154.908030 658.509222,155.131429 M 658.509222 155.131429 C 660.460347,155.354827 662.411469,155.485763 664.362584,155.320000 M 664.362584 155.320000 C 666.313698,155.154237 668.264805,154.691776 670.215927,153.794286 M 670.215927 153.794286 C 672.167048,152.896796 674.118185,151.564278 676.069308,149.860000 M 676.069308 149.860000 C 678.020432,148.155722 679.971543,146.079685 681.922659,143.920000 M 681.922659 143.920000 C 683.873774,141.760315 685.824895,139.516984 687.776019,137.482857 M 687.776019 137.482857 C 689.727142,135.448731 691.678268,133.623809 693.629386,132.185714 M 693.629386 132.185714 C 695.580504,130.747619 697.531615,129.696350 699.482735,129.074286 M 699.482735 129.074286 C 701.433854,128.452221 703.384983,128.259361 705.336106,128.465714 M 705.336106 128.465714 C 707.287229,128.672067 709.238346,129.277633 711.189463,130.051429 M 711.189463 130.051429 C 713.140580,130.825224 715.091698,131.767250 717.042819,132.494286 M 717.042819 132.494286 C 718.993939,133.221321 720.945062,133.733366 722.896183,133.754286 M 722.896183 133.754286 C 724.847303,133.775205 726.798422,133.305000 728.749542,132.400000 M 728.749542 132.400000 C 730.700662,131.495000 732.651782,130.155206 734.602904,128.714286 M 734.602904 128.714286 C 736.554026,127.273365 738.505149,125.731318 740.456270,124.454286 M 740.456270 124.454286 C 742.407391,123.177253 744.358510,122.165235 746.309630,121.660000 M 746.309630 121.660000 C 748.260750,121.154765 750.211871,121.156314 752.162991,121.771429 M 752.162991 121.771429 C 754.114111,122.386543 756.065229,123.615222 758.016351,125.388571 M 758.016351 125.388571 C 759.967474,127.161920 761.918600,129.479939 763.869718,132.194286 M 763.869718 132.194286 C 765.820837,134.908633 767.771947,138.019308 769.723067,141.434286 M 769.723067 141.434286 C 771.674187,144.849263 773.625316,148.568543 775.576439,152.577143 M 775.576439 152.577143 C 777.527561,156.585742 779.478676,160.883662 781.429795,165.622857 M 781.429795 165.622857 C 783.380914,170.362052 785.332037,175.542523 787.283158,181.634286 M 787.283158 181.634286 C 789.234278,187.726048 791.185397,194.729102 793.136515,203.508571 M 793.136515 203.508571 C 795.087633,212.288041 797.038752,222.843927 798.989874,236.242857 M 798.989874 236.242857 C 800.940997,249.641787 802.892123,265.883762 804.843243,285.725714 M 804.843243 285.725714 C 806.794362,305.567666 808.745476,329.009595 810.696597,355.300000 M 810.696597 355.300000 C 812.647718,381.590405 814.598846,410.729285 816.549968,440.945714 M 816.549968 440.945714 C 818.501089,471.162144 820.452204,502.456123 822.403323,527.560000 M 822.403323 527.560000 C 824.354442,552.663877 826.305565,571.577653 828.256688,590.491429 " stroke="#8cd8d8" /></g></svg>