<?xml version="1.0" encoding="utf-8" ?>
<svg baseProfile="full" height="600px" version="1.1" width="1000px" xmlns="http://www.w3.org/2000/svg" xmlns:ev="http://www.w3.org/2001/xml-events" xmlns:xlink="http://www.w3.org/1999/xlink"><defs /><g id="shapes"><rect fill="#eaeaea" height="300px" stroke="#000000" stroke-width="1" width="700px" x="120px" y="10px" /></g><g id="trace"><circle cx="161.0879604463256px" cy="224.28571428571428px" r="2px" stroke-width="2" /><circle cx="260.4806646431912px" cy="224.28571428571428px" r="2px" stroke-width="2" /><circle cx="283.09300101173767px" cy="138.57142857142858px" r="2px" stroke-width="2" /><circle cx="394.421293779659px" cy="224.28571428571428px" r="2px" stroke-width="2" /><circle cx="493.81399797652455px" cy="224.28571428571428px" r="2px" stroke-width="2" /><circle cx="516.426334345071px" cy="138.57142857142858px" r="2px" stroke-width="2" /><circle cx="627.7546271129924px" cy="224.28571428571428px" r="2px" stroke-width="2" /><circle cx="727.1473313098579px" cy="224.28571428571428px" r="2px" stroke-width="2" /><circle cx="749.7596676784044px" cy="138.57142857142858px" r="2px" stroke-width="2" /><circle cx="251.34177521598613px" cy="309.9999142857143px" r="2px" stroke-width="2" /></g><g fill="grey" id="scale_lines" stroke="grey"><line stroke-width="1" x1="120.0" x2="820.0" y1="310.0" y2="310.0" /><line stroke-width="0.25" x1="120.0" x2="820.0" y1="301.42857142857144" y2="301.42857142857144" /><line stroke-width="0.25" x1="120.0" x2="820.0" y1="292.85714285714283" y2="292.85714285714283" /><line stroke-width="0.25" x1="120.0" x2="820.0" y1="284.2857142857143" y2="284.2857142857143" /><line stroke-width="0.25" x1="120.0" x2="820.0" y1="275.7142857142857" y2="275.7142857142857" /><line stroke-width="0.5" x1="120.0" x2="820.0" y1="267.14285714285717" y2="267.14285714285717" /><line stroke-width="0.25" x1="120.0" x2="820.0" y1="258.57142857142856" y2="258.57142857142856" /><line stroke-width="0.25" x1="120.0" x2="820.0" y1="250.0" y2="250.0" /><line stroke-width="0.25" x1="120.0" x2="820.0" y1="241.42857142857144" y2="241.42857142857144" /><line stroke-width="0.25" x1="120.0" x2="820.0" y1="232.85714285714286" y2="232.85714285714286" /><line stroke-width="1" x1="120.0" x2="820.0" y1="224.28571428571428" y2="224.28571428571428" /><line stroke-width="0.25" x1="120.0" x2="820.0" y1="215.71428571428572" y2="215.71428571428572" /><line stroke-width="0.25" x1="120.0" x2="820.0" y1="207.14285714285714" y2="207.14285714285714" /><line stroke-width="0.25" x1="120.0" x2="820.0" y1="198.57142857142856" y2="198.57142857142856" /><line stroke-width="0.25" x1="120.0" x2="820.0" y1="190.0" y2="190.0" /><line stroke-width="0.5" x1="120.0" x2="820.0" y1="181.42857142857144" y2="181.42857142857144" /><line stroke-width="0.25" x1="120.0" x2="820.0" y1="172.85714285714286" y2="172.85714285714286" /><line stroke-width="0.25" x1="120.0" x2="820.0" y1="164.28571428571428" y2="164.28571428571428" /><line stroke-width="0.25" x1="120.0" x2="820.0" y1="155.71428571428572" y2="155.71428571428572" /><line stroke-width="0.25" x1="120.0" x2="820.0" y1="147.14285714285717" y2="147.14285714285717" /><line stroke-width="1" x1="120.0" x2="820.0" y1="138.57142857142858" y2="138.57142857142858" /><line stroke-width="0.25" x1="120.0" x2="820.0" y1="130.0" y2="130.0" /><line stroke-width="0.25" x1="120.0" x2="820.0" y1="121.42857142857144" y2="121.42857142857144" /><line stroke-width="0.25" x1="120.0" x2="820.0" y1="112.85714285714286" y2="112.85714285714286" /><line stroke-width="0.25" x1="120.0" x2="820.0" y1="104.28571428571428" y2="104.28571428571428" /><line stroke-width="0.5" x1="120.0" x2="820.0" y1="95.71428571428572" y2="95.71428571428572" /><line stroke-width="0.25" x1="120.0" x2="820.0" y1="87.14285714285714" y2="87.14285714285714" /><line stroke-width="0.25" x1="120.0" x2="820.0" y1="78.57142857142856" y2="78.57142857142856" /><line stroke-width="0.25" x1="120.0" x2="820.0" y1="70.0" y2="70.0" /><line stroke-width="0.25" x1="120.0" x2="820.0" y1="61.428571428571416" y2="61.428571428571416" /><line stroke-width="1" x1="120.0" x2="820.0" y1="52.85714285714289" y2="52.85714285714289" /><line stroke-width="0.25" x1="120.0" x2="820.0" y1="44.28571428571428" y2="44.28571428571428" /><line stroke-width="0.25" x1="120.0" x2="820.0" y1="35.71428571428572" y2="35.71428571428572" /><line stroke-width="0.25" x1="120.0" x2="820.0" y1="27.142857142857167" y2="27.142857142857167" /><line stroke-width="0.25" x1="120.0" x2="820.0" y1="18.571428571428555" y2="18.571428571428555" /><line stroke-width="0.25" x1="120.0" x2="120.0" y1="10.0" y2="310.0" /><line stroke-width="0.25" x1="161.0879604463256" x2="161.0879604463256" y1="10.0" y2="310.0" /><line stroke-width="0.25" x1="190.24033232159564" x2="190.24033232159564" y1="10.0" y2="310.0" /><line stroke-width="0.25" x1="212.85266869014208" x2="212.85266869014208" y1="10.0" y2="310.0" /><line stroke-width="0.25" x1="231.32829276792123" x2="231.32829276792123" y1="10.0" y2="310.0" /><line stroke-width="0.25" x1="246.94921034839766" x2="246.94921034839766" y1="10.0" y2="310.0" /><line stroke-width="0.25" x1="260.4806646431912" x2="260.4806646431912" y1="10.0" y2="310.0" /><line stroke-width="0.25" x1="272.4162532142468" x2="272.4162532142468" y1="10.0" y2="310.0" /><line stroke-width="1" x1="283.09300101173767" x2="283.09300101173767" y1="10.0" y2="310.0" /><line stroke-width="0.25" x1="353.3333333333333" x2="353.3333333333333" y1="10.0" y2="310.0" /><line stroke-width="0.25" x1="394.421293779659" x2="394.421293779659" y1="10.0" y2="310.0" /><line stroke-width="0.25" x1="423.57366565492896" x2="423.57366565492896" y1="10.0" y2="310.0" /><line stroke-width="0.25" x1="446.1860020234754" x2="446.1860020234754" y1="10.0" y2="310.0" /><line stroke-width="0.25" x1="464.6616261012545" x2="464.6616261012545" y1="10.0" y2="310.0" /><line stroke-width="0.25" x1="480.282543681731" x2="480.282543681731" y1="10.0" y2="310.0" /><line stroke-width="0.25" x1="493.81399797652455" x2="493.81399797652455" y1="10.0" y2="310.0" /><line stroke-width="0.25" x1="505.7495865475801" x2="505.7495865475801" y1="10.0" y2="310.0" /><line stroke-width="1" x1="516.426334345071" x2="516.426334345071" y1="10.0" y2="310.0" /><line stroke-width="0.25" x1="586.6666666666666" x2="586.6666666666666" y1="10.0" y2="310.0" /><line stroke-width="0.25" x1="627.7546271129924" x2="627.7546271129924" y1="10.0" y2="310.0" /><line stroke-width="0.25" x1="656.9069989882623" x2="656.9069989882623" y1="10.0" y2="310.0" /><line stroke-width="0.25" x1="679.5193353568087" x2="679.5193353568087" y1="10.0" y2="310.0" /><line stroke-width="0.25" x1="697.9949594345879" x2="697.9949594345879" y1="10.0" y2="310.0" /><line stroke-width="0.25" x1="713.6158770150643" x2="713.6158770150643" y1="10.0" y2="310.0" /><line stroke-width="0.25" x1="727.1473313098579" x2="727.1473313098579" y1="10.0" y2="310.0" /><line stroke-width="0.25" x1="739.0829198809134" x2="739.0829198809134" y1="10.0" y2="310.0" /><line stroke-width="1" x1="749.7596676784044" x2="749.7596676784044" y1="10.0" y2="310.0" /></g><g fill="black" id="labels"><text fill="black" font-family="sans-serif" font-size="12" transform="rotate(45,212.85266869014208,320.0)" x="212.85266869014208" y="320.0">50</text><text fill="black" font-family="sans-serif" font-size="12" transform="rotate(45,283.09300101173767,320.0)" x="283.09300101173767" y="320.0">100</text><text fill="black" font-family="sans-serif" font-size="12" transform="rotate(45,446.1860020234754,320.0)" x="446.1860020234754" y="320.0">500</text><text fill="black" font-family="sans-serif" font-size="12" transform="rotate(45,516.426334345071,320.0)" x="516.426334345071" y="320.0">1000</text><text fill="black" font-family="sans-serif" font-size="12" transform="rotate(45,679.5193353568087,320.0)" x="679.5193353568087" y="320.0">5000</text><text fill="black" font-family="sans-serif" font-size="12" transform="rotate(45,749.7596676784044,320.0)" x="749.7596676784044" y="320.0">10000</text><text fill="black" font-family="sans-serif" font-size="12" transform="rotate(0,850,320)" x="850" y="320">Frequency in Hz</text><text fill="black" font-family="sans-serif" font-size="12" transform="rotate(0,100.0,314.0)" x="100.0" y="314.0">60</text><text fill="black" font-family="sans-serif" font-size="12" transform="rotate(0,100.0,271.14285714285717)" x="100.0" y="271.14285714285717">65</text><text fill="black" font-family="sans-serif" font-size="12" transform="rotate(0,100.0,228.28571428571428)" x="100.0" y="228.28571428571428">70</text><text fill="black" font-family="sans-serif" font-size="12" transform="rotate(0,100.0,185.42857142857144)" x="100.0" y="185.42857142857144">75</text><text fill="black" font-family="sans-serif" font-size="12" transform="rotate(0,100.0,142.57142857142858)" x="100.0" y="142.57142857142858">80</text><text fill="black" font-family="sans-serif" font-size="12" transform="rotate(0,100.0,99.71428571428572)" x="100.0" y="99.71428571428572">85</text><text fill="black" font-family="sans-serif" font-size="12" transform="rotate(0,100.0,56.85714285714289)" x="100.0" y="56.85714285714289">90</text><text fill="black" font-family="sans-serif" font-size="12" transform="rotate(0,30,15)" x="30" y="15">Amplitude in dB</text></g><g fill="white" fill-opacity="0" id="path" stroke-width="2"><path d="M 49.759668 138.571429 C 92.431624,150.943217 135.103580,163.315005 161.087960,224.285714 M 161.087960 224.285714 C 187.072340,285.256424 196.369144,394.826055 212.852669,395.714286 M 212.852669 395.714286 C 229.336193,396.602517 253.006439,288.809348 260.480665,224.285714 M 260.480665 224.285714 C 267.954890,159.762081 259.233097,138.507984 283.093001,138.571429 M 283.093001 138.571429 C 306.952905,138.634874 363.394508,160.015861 394.421294,224.285714 M 394.421294 224.285714 C 425.448079,288.555567 431.060048,395.714286 446.186002,395.714286 M 446.186002 395.714286 C 461.311956,395.714286 485.951895,288.555567 493.813998,224.285714 M 493.813998 224.285714 C 501.676101,160.015861 492.760369,138.634874 516.426334,138.571429 M 516.426334 138.571429 C 540.092300,138.507984 596.339964,159.762081 627.754627,224.285714 M 627.754627 224.285714 C 659.169290,288.809348 665.750952,396.602517 679.519335,395.714286 M 679.519335 395.714286 C 693.287718,394.826055 714.242822,285.256424 727.147331,224.285714 M 727.147331 224.285714 C 740.051840,163.315005 744.905754,150.943217 749.759668,138.571429 " stroke="#d88c8c" /><path d="M 212.852669 395.714286 C 229.336193,396.602517 253.006439,288.809348 260.480665,224.285714" stroke="green" /></g><g fill="cornflowerblue" id="dots" stroke="cornflowerblue" stroke-width="1" /></svg>